# xmcd CD database file
#
# Track frame offsets:
#	150
#	14931
#	30216
#	48135
#	65155
#	78639
#	91995
#	104896
#	123438
#	136433
#	156986
#	172417
#	187611
#	203001
#
# Disc length: 2929 seconds
#
# Revision: 0
# Processed by: cddbd v1.4PL0 Copyright (c) Steve Scherf et al.
# Submitted via: CDex 1.40Beta8
#
DISCID=c60b6f0e
DTITLE=Teixeirinha - Popularidade
DYEAR=1900
DGENRE=Country
TTITLE0=Coração de Luto
TTITLE1=A Morte Nâo Marca Hora
TTITLE2=Tordilho Negro
TTITLE3=Amor Aos Passarinhos
TTITLE4=Passo Fundo Coração
TTITLE5=Canarinho Cantador
TTITLE6=Amor de Gaúcho
TTITLE7=Menina da Gaita
TTITLE8=Gaúcho de Passo Fundo
TTITLE9=Quem é Você Agora
TTITLE10=Facão de Três Listas
TTITLE11=Última Gineteada
TTITLE12=Meu Pedaço de Chão
TTITLE13=Sua Crueldade
EXTD=ID3G: 2
EXTT0=
EXTT1=
EXTT2=
EXTT3=
EXTT4=
EXTT5=
EXTT6=
EXTT7=
EXTT8=
EXTT9=
EXTT10=
EXTT11=
EXTT12=
EXTT13=
PLAYORDER=
